<?xml version="1.0" encoding="utf-8"?>
<!-- Generator: Adobe Illustrator 28.1.0, SVG Export Plug-In . SVG Version: 6.00 Build 0)  -->
<svg version="1.1" id="Layer_1" xmlns="http://www.w3.org/2000/svg" xmlns:xlink="http://www.w3.org/1999/xlink" x="0px" y="0px"
	 viewBox="0 0 250.55 72.62" style="enable-background:new 0 0 250.55 72.62;" xml:space="preserve">
<style type="text/css">
	.st0{fill:#5E8BC8;}
	.st1{fill:#99CA3E;}
	.st2{fill:#F58652;}
</style>
<g>
	<path class="st0" d="M9.96,14.96H1.05V7.09H28.8v7.88H19.9v25.95H9.96V14.96z"/>
	<path class="st0" d="M32.2,7.09h16.62c6.98,0,11.06,3.19,11.06,8.53v0.05c0,3.91-3.02,6.87-6.96,7.36v0.19
		c4.55,0.12,8.39,3.49,8.39,7.9v0.05c0,5.88-4.69,9.75-11.93,9.75H32.2V7.09z M42.14,13.89v6.89h3.56c2.98,0,4.52-1.34,4.52-3.54
		v-0.05c0-2.04-1.57-3.3-4.1-3.3H42.14z M42.14,26.75v7.36h4.24c3.05,0,4.8-1.31,4.8-3.68v-0.05c0-2.32-1.73-3.63-5.02-3.63H42.14z"
		/>
	<path class="st1" d="M63.82,23.8c0-10.36,5.91-17.2,14.81-17.2c6.14,0,11.16,3.38,12.91,8.51c0.16,0.49,0.23,0.89,0.23,1.24
		c0,0.52-0.28,0.87-0.82,0.87c-0.49,0-0.75-0.26-0.96-0.84c-1.48-4.95-5.88-8.04-11.37-8.04c-7.83,0-12.91,6.09-12.91,15.45
		c0,9.52,5.2,15.89,12.91,15.89c7.27,0,11.79-4.57,11.79-11.86v-1.95H79.29c-0.56,0-0.91-0.35-0.91-0.84s0.35-0.84,0.91-0.84h12.07
		c0.56,0,0.91,0.38,0.91,0.98v2.37c0,8.62-5.16,13.88-13.64,13.88C69.82,41.4,63.82,34.3,63.82,23.8z"/>
	<path class="st1" d="M95.55,28.84c0-7.73,4.24-12.68,10.69-12.68c6.21,0,10.45,4.71,10.45,11.6c0,0.8-0.47,1.27-1.29,1.27h-18
		c0,6.73,3.54,10.64,9.07,10.64c4.03,0,7.01-1.97,8.18-5.39c0.14-0.33,0.35-0.54,0.75-0.54c0.47,0,0.82,0.33,0.82,0.82
		c0,0.16-0.07,0.45-0.14,0.66c-1.17,3.73-4.83,6.07-9.54,6.07C99.77,41.29,95.55,36.67,95.55,28.84z M114.82,27.5
		c-0.02-5.79-3.47-9.73-8.58-9.73c-5.06,0-8.55,3.87-8.81,9.73H114.82z"/>
	<path class="st1" d="M120.84,40.3V17.1c0-0.56,0.35-0.94,0.84-0.94c0.52,0,0.87,0.38,0.87,0.94v4.73h0.05
		c1.15-3.42,4.31-5.67,8.51-5.67c5.25,0,8.84,3.47,8.84,8.95V40.3c0,0.59-0.38,0.98-0.91,0.98s-0.91-0.4-0.91-0.98V25.35
		c0-4.71-3-7.55-7.43-7.55c-4.83,0-8.02,3.49-8.02,8.55V40.3c0,0.59-0.38,0.98-0.91,0.98S120.84,40.89,120.84,40.3z"/>
	<path class="st1" d="M143.98,28.72c0-7.64,4.31-12.56,10.85-12.56c6.56,0,10.88,4.92,10.88,12.56c0,7.62-4.31,12.56-10.88,12.56
		C148.29,41.29,143.98,36.36,143.98,28.72z M163.88,28.72c0-6.68-3.56-10.92-9.05-10.92c-5.46,0-9.02,4.22-9.02,10.92
		s3.56,10.92,9.02,10.92C160.31,39.64,163.88,35.4,163.88,28.72z"/>
	<path class="st2" d="M170.18,40.28V8.07c0-0.61,0.35-0.98,0.91-0.98h9.89c6.56,0,10.85,3.98,10.85,10.1s-4.29,10.08-10.88,10.08
		h-8.93v13.01c0,0.61-0.38,0.98-0.94,0.98S170.18,40.89,170.18,40.28z M180.68,25.58c5.7,0,9.28-3.19,9.28-8.39
		c0-5.23-3.56-8.41-9.28-8.41h-8.65v16.8H180.68z"/>
	<path class="st2" d="M195.84,9.11c0-0.8,0.66-1.41,1.43-1.41s1.43,0.61,1.43,1.41s-0.66,1.43-1.43,1.43S195.84,9.9,195.84,9.11z
		 M196.36,40.3V17.14c0-0.59,0.38-0.98,0.91-0.98s0.91,0.4,0.91,0.98V40.3c0,0.59-0.38,0.98-0.91,0.98S196.36,40.89,196.36,40.3z"/>
	<path class="st2" d="M203.79,48.29V17.1c0-0.56,0.35-0.94,0.84-0.94c0.52,0,0.87,0.38,0.87,0.94v5.98h0.07
		c1.12-3.91,4.57-6.91,9.09-6.91c6.12,0,10.34,5.06,10.34,12.56s-4.2,12.56-10.31,12.56c-4.5,0-7.95-2.98-9.02-6.77h-0.05v13.78
		c0,0.61-0.38,0.98-0.91,0.98S203.79,48.9,203.79,48.29z M223.15,28.75c0-6.52-3.52-10.95-8.7-10.95c-5.23,0-8.86,4.45-8.86,10.92
		s3.63,10.92,8.86,10.92C219.63,39.64,223.15,35.24,223.15,28.75z"/>
	<path class="st2" d="M227.95,28.84c0-7.73,4.24-12.68,10.69-12.68c6.21,0,10.45,4.71,10.45,11.6c0,0.8-0.47,1.27-1.29,1.27h-18
		c0,6.73,3.54,10.64,9.07,10.64c4.03,0,7.01-1.97,8.18-5.39c0.14-0.33,0.35-0.54,0.75-0.54c0.47,0,0.82,0.33,0.82,0.82
		c0,0.16-0.07,0.45-0.14,0.66c-1.17,3.73-4.83,6.07-9.54,6.07C232.17,41.29,227.95,36.67,227.95,28.84z M247.22,27.5
		c-0.02-5.79-3.47-9.73-8.58-9.73c-5.06,0-8.55,3.87-8.81,9.73H247.22z"/>
</g>
</svg>
